<svg width="166" height="24" viewBox="0 0 166 24" fill="none" xmlns="http://www.w3.org/2000/svg">
<path d="M165.309 2.736C165.381 2.904 165.417 3.084 165.417 3.276C165.441 3.468 165.393 3.66 165.273 3.852C165.225 3.948 165.201 4.044 165.201 4.14C165.225 4.212 165.237 4.308 165.237 4.428C165.189 4.5 165.129 4.572 165.057 4.644C164.985 4.692 164.925 4.764 164.877 4.86C164.829 4.908 164.781 4.968 164.733 5.04C164.709 5.112 164.649 5.172 164.553 5.22C164.433 5.196 164.289 5.184 164.121 5.184C163.953 5.184 163.797 5.184 163.653 5.184C163.293 5.184 162.969 5.28 162.681 5.472C162.585 5.568 162.489 5.64 162.393 5.688C162.297 5.712 162.201 5.748 162.105 5.796C161.961 5.94 161.913 6.084 161.961 6.228V6.912C161.985 7.128 162.009 7.344 162.033 7.56C162.081 7.752 162.093 7.968 162.069 8.208C162.045 8.256 162.045 8.328 162.069 8.424C162.093 8.496 162.117 8.556 162.141 8.604C162.117 8.7 162.081 8.784 162.033 8.856C162.009 8.904 161.985 8.976 161.961 9.072C161.985 9.168 162.009 9.264 162.033 9.36C162.057 9.432 162.081 9.516 162.105 9.612C162.105 9.732 162.093 9.816 162.069 9.864C162.021 10.008 161.973 10.152 161.925 10.296C161.901 10.44 161.865 10.584 161.817 10.728C161.745 10.896 161.733 11.052 161.781 11.196C161.829 11.34 161.817 11.484 161.745 11.628C161.745 12.132 161.721 12.624 161.673 13.104C161.625 13.584 161.589 14.064 161.565 14.544C161.565 15.168 161.673 15.804 161.889 16.452C161.985 16.668 162.141 16.776 162.357 16.776C162.405 16.752 162.453 16.716 162.501 16.668C162.573 16.62 162.645 16.584 162.717 16.56C162.789 16.56 162.849 16.584 162.897 16.632C163.089 16.848 163.305 16.992 163.545 17.064C163.929 17.16 164.037 17.352 163.869 17.64C163.797 17.808 163.761 17.988 163.761 18.18C163.785 18.372 163.785 18.564 163.761 18.756C163.713 19.284 163.689 19.824 163.689 20.376C163.689 20.904 163.725 21.444 163.797 21.996C163.797 22.26 163.773 22.428 163.725 22.5C163.701 22.596 163.557 22.74 163.293 22.932H163.185C162.993 22.908 162.801 22.884 162.609 22.86C162.441 22.836 162.273 22.812 162.105 22.788C161.649 22.86 161.241 22.896 160.881 22.896C160.713 22.92 160.545 22.956 160.377 23.004C160.233 23.076 160.065 23.1 159.873 23.076C159.681 23.028 159.489 23.028 159.297 23.076C159.105 23.124 158.913 23.148 158.721 23.148C158.625 23.1 158.529 23.064 158.433 23.04C158.361 23.016 158.265 22.98 158.145 22.932C157.569 23.028 156.993 23.088 156.417 23.112C155.841 23.136 155.253 23.16 154.653 23.184C154.533 23.016 154.413 22.86 154.293 22.716C154.173 22.596 154.065 22.464 153.969 22.32C153.921 22.152 153.825 22.008 153.681 21.888C153.561 21.768 153.441 21.66 153.321 21.564C153.297 21.324 153.249 21.096 153.177 20.88C153.129 20.688 153.129 20.496 153.177 20.304C153.249 20.184 153.273 20.064 153.249 19.944C153.201 19.728 153.189 19.512 153.213 19.296C153.261 19.056 153.309 18.828 153.357 18.612V18.18C153.549 18.132 153.741 18.096 153.933 18.072C154.125 18.024 154.317 18.024 154.509 18.072C154.605 18.024 154.689 17.976 154.761 17.928C154.833 17.856 154.917 17.784 155.013 17.712C155.133 17.76 155.253 17.808 155.373 17.856C155.493 17.904 155.625 17.952 155.769 18C156.009 17.856 156.285 17.664 156.597 17.424C156.645 17.28 156.669 17.172 156.669 17.1C156.669 16.836 156.669 16.572 156.669 16.308C156.669 16.02 156.681 15.744 156.705 15.48V15.372C156.609 15.132 156.573 14.904 156.597 14.688C156.621 14.472 156.621 14.244 156.597 14.004V13.536C156.645 12.984 156.657 12.444 156.633 11.916C156.633 11.364 156.621 10.812 156.597 10.26L156.849 9.792C156.825 9.672 156.801 9.552 156.777 9.432C156.753 9.312 156.729 9.192 156.705 9.072C156.729 8.952 156.753 8.844 156.777 8.748C156.825 8.652 156.861 8.544 156.885 8.424C156.885 8.328 156.873 8.256 156.849 8.208C156.729 7.92 156.681 7.656 156.705 7.416V6.876C156.705 6.78 156.681 6.708 156.633 6.66C156.585 6.588 156.561 6.504 156.561 6.408C156.585 6.36 156.597 6.252 156.597 6.084C156.573 5.94 156.549 5.796 156.525 5.652C156.501 5.508 156.465 5.364 156.417 5.22C156.297 5.1 156.165 5.064 156.021 5.112C155.877 5.136 155.745 5.136 155.625 5.112C155.505 5.064 155.373 5.04 155.229 5.04C155.085 5.04 154.929 5.04 154.761 5.04C154.593 4.944 154.401 4.908 154.185 4.932C153.993 4.932 153.801 4.896 153.609 4.824C153.513 4.704 153.465 4.56 153.465 4.392C153.489 4.224 153.465 4.104 153.393 4.032C153.345 3.936 153.345 3.816 153.393 3.672C153.441 3.504 153.441 3.36 153.393 3.24C153.489 3.12 153.501 3.036 153.429 2.988C153.357 2.94 153.357 2.844 153.429 2.7C153.501 2.58 153.537 2.448 153.537 2.304C153.537 2.136 153.585 2.004 153.681 1.908C153.729 1.86 153.741 1.788 153.717 1.692C153.717 1.572 153.729 1.464 153.753 1.368C153.801 1.32 153.909 1.296 154.077 1.296C154.245 1.272 154.341 1.236 154.365 1.188C154.461 1.068 154.569 0.984 154.689 0.935999C154.833 0.888 154.977 0.827999 155.121 0.755999C155.169 0.755999 155.229 0.755999 155.301 0.755999C155.373 0.731999 155.457 0.719999 155.553 0.719999C155.745 0.719999 155.949 0.719999 156.165 0.719999C156.381 0.719999 156.585 0.708 156.777 0.684C156.969 0.635999 157.161 0.599998 157.353 0.575998C157.545 0.527999 157.749 0.492 157.965 0.467999C158.181 0.419999 158.397 0.431999 158.613 0.504C158.925 0.599998 159.309 0.587998 159.765 0.467999C159.861 0.443999 159.945 0.419998 160.017 0.395998C160.089 0.371998 160.149 0.347999 160.197 0.323999C160.365 0.347999 160.509 0.371998 160.629 0.395998C160.773 0.419998 160.893 0.431999 160.989 0.431999C161.061 0.431999 161.133 0.419998 161.205 0.395998C161.301 0.371998 161.373 0.359999 161.421 0.359999C161.661 0.359999 161.877 0.371998 162.069 0.395998C162.285 0.395998 162.501 0.419999 162.717 0.467999C163.173 0.539999 163.581 0.563999 163.941 0.539999C164.061 0.515999 164.157 0.515999 164.229 0.539999C164.325 0.539999 164.385 0.539999 164.409 0.539999C164.577 0.563999 164.697 0.623999 164.769 0.719999C164.865 0.792 164.937 0.851998 164.985 0.899998C165.369 1.284 165.453 1.68 165.237 2.088C165.213 2.112 165.201 2.196 165.201 2.34C165.225 2.388 165.237 2.448 165.237 2.52C165.261 2.568 165.285 2.64 165.309 2.736Z" fill="black"/>
<path d="M150.236 6.48C150.212 6.768 150.212 7.056 150.236 7.344C150.26 7.608 150.248 7.872 150.2 8.136C150.128 8.448 150.08 8.76 150.056 9.072C150.032 9.384 150.008 9.696 149.984 10.008C149.888 10.176 149.804 10.356 149.732 10.548C149.684 10.716 149.612 10.872 149.516 11.016C149.42 11.16 149.324 11.304 149.228 11.448C149.132 11.568 149.024 11.712 148.904 11.88C148.856 11.928 148.832 12.012 148.832 12.132C148.616 12.42 148.376 12.684 148.112 12.924C147.872 13.14 147.596 13.32 147.284 13.464C147.116 13.752 146.948 13.98 146.78 14.148C146.732 14.22 146.648 14.28 146.528 14.328C146.216 14.472 145.868 14.58 145.484 14.652C145.004 14.772 144.668 15.024 144.476 15.408V16.056C144.5 16.152 144.572 16.212 144.692 16.236C144.836 16.26 144.956 16.332 145.052 16.452C145.052 16.476 145.076 16.5 145.124 16.524C145.172 16.548 145.196 16.584 145.196 16.632C145.292 17.04 145.532 17.304 145.916 17.424C146.06 17.616 146.192 17.808 146.312 18C146.456 18.168 146.588 18.336 146.708 18.504C146.828 18.576 146.936 18.648 147.032 18.72C147.152 18.768 147.272 18.828 147.392 18.9C147.44 18.996 147.5 19.116 147.572 19.26C147.668 19.38 147.752 19.5 147.824 19.62C147.92 19.716 148.016 19.8 148.112 19.872C148.208 19.92 148.268 19.968 148.292 20.016C148.364 20.328 148.352 20.532 148.256 20.628C147.968 20.964 147.776 21.276 147.68 21.564C147.632 21.636 147.584 21.696 147.536 21.744C147.488 21.768 147.44 21.804 147.392 21.852C147.224 21.948 147.044 22.008 146.852 22.032C146.66 22.056 146.504 22.128 146.384 22.248C146.264 22.344 146.132 22.392 145.988 22.392C145.844 22.416 145.712 22.476 145.592 22.572C145.4 22.716 145.22 22.872 145.052 23.04C144.908 23.232 144.716 23.388 144.476 23.508C144.38 23.484 144.26 23.472 144.116 23.472C143.972 23.472 143.84 23.472 143.72 23.472L143 22.968C142.904 22.872 142.856 22.812 142.856 22.788C142.808 22.668 142.76 22.548 142.712 22.428C142.664 22.332 142.616 22.236 142.568 22.14C142.544 22.044 142.484 21.96 142.388 21.888C142.292 21.792 142.22 21.696 142.172 21.6V21.312C142.172 21.12 142.088 21.024 141.92 21.024C141.848 21 141.788 20.988 141.74 20.988C141.692 20.988 141.644 20.988 141.596 20.988C141.236 20.724 140.9 20.4 140.588 20.016C140.348 19.776 140.108 19.596 139.868 19.476C139.652 19.332 139.448 19.152 139.256 18.936C139.064 18.72 138.872 18.504 138.68 18.288C138.56 18.144 138.44 18 138.32 17.856C138.2 17.688 138.068 17.556 137.924 17.46C137.708 17.436 137.492 17.436 137.276 17.46C137.06 17.484 136.868 17.544 136.7 17.64C136.652 17.64 136.592 17.7 136.52 17.82C136.496 17.988 136.472 18.156 136.448 18.324C136.424 18.468 136.4 18.624 136.376 18.792C136.472 19.248 136.484 19.716 136.412 20.196C136.34 20.46 136.292 20.724 136.268 20.988C136.268 21.252 136.256 21.516 136.232 21.78C136.232 21.876 136.232 21.984 136.232 22.104C136.232 22.224 136.208 22.332 136.16 22.428C136.112 22.644 135.98 22.788 135.764 22.86H135.62C135.524 22.836 135.428 22.812 135.332 22.788C135.26 22.788 135.164 22.776 135.044 22.752C134.684 22.848 134.312 22.86 133.928 22.788C133.544 22.716 133.16 22.656 132.776 22.608C132.392 22.56 132.02 22.5 131.66 22.428C131.612 22.428 131.564 22.416 131.516 22.392C131.492 22.392 131.456 22.38 131.408 22.356C131.312 22.26 131.264 22.176 131.264 22.104C131.264 21.888 131.252 21.672 131.228 21.456C131.204 21.216 131.168 20.976 131.12 20.736C131 20.304 131.024 19.932 131.192 19.62C131.168 19.404 131.144 19.188 131.12 18.972C131.096 18.756 131.096 18.552 131.12 18.36C131.168 18.264 131.168 18.144 131.12 18C131.096 17.856 131.036 17.808 130.94 17.856C130.916 17.88 130.88 17.892 130.832 17.892C130.784 17.868 130.76 17.844 130.76 17.82C130.736 17.772 130.712 17.724 130.688 17.676C130.664 17.604 130.64 17.556 130.616 17.532C130.616 17.412 130.616 17.28 130.616 17.136C130.616 16.992 130.604 16.86 130.58 16.74C130.58 16.62 130.58 16.5 130.58 16.38C130.58 16.26 130.556 16.152 130.508 16.056C130.436 15.816 130.4 15.564 130.4 15.3C130.4 15.036 130.4 14.784 130.4 14.544C130.376 14.448 130.352 14.376 130.328 14.328C130.304 14.256 130.268 14.184 130.22 14.112C130.268 13.944 130.304 13.788 130.328 13.644C130.376 13.476 130.34 13.308 130.22 13.14C130.268 12.948 130.28 12.756 130.256 12.564C130.232 12.348 130.28 12.132 130.4 11.916C130.448 11.796 130.46 11.676 130.436 11.556C130.412 11.436 130.388 11.292 130.364 11.124C130.412 10.932 130.472 10.752 130.544 10.584C130.616 10.392 130.676 10.176 130.724 9.936C130.7 9.816 130.664 9.612 130.616 9.324C130.568 9.204 130.532 9.096 130.508 9C130.484 8.904 130.46 8.808 130.436 8.712C130.412 8.592 130.424 8.484 130.472 8.388C130.544 8.268 130.556 8.148 130.508 8.028C130.484 7.86 130.472 7.752 130.472 7.704C130.496 7.656 130.556 7.56 130.652 7.416C130.628 7.368 130.616 7.332 130.616 7.308C130.616 7.26 130.604 7.224 130.58 7.2C130.364 6.912 130.316 6.552 130.436 6.12C130.484 5.976 130.532 5.832 130.58 5.688C130.652 5.544 130.7 5.412 130.724 5.292C130.7 5.196 130.676 5.1 130.652 5.004C130.652 4.908 130.64 4.812 130.616 4.716L130.868 3.852C130.82 3.684 130.784 3.516 130.76 3.348C130.736 3.18 130.7 3.012 130.652 2.844C130.652 2.628 130.748 2.4 130.94 2.16C131.036 2.04 131.132 1.992 131.228 2.016C131.348 2.04 131.492 2.04 131.66 2.016C131.828 1.968 131.996 1.908 132.164 1.836C132.356 1.764 132.56 1.716 132.776 1.692C132.992 1.668 133.196 1.572 133.388 1.404C133.58 1.284 133.772 1.188 133.964 1.116C134.156 1.02 134.348 0.947997 134.54 0.899998C134.924 0.971998 135.164 1.008 135.26 1.008C135.38 0.983998 135.572 0.887999 135.836 0.719999H136.484C136.604 0.696 136.724 0.671998 136.844 0.647997C136.964 0.599998 137.096 0.563999 137.24 0.539999C137.288 0.491998 137.36 0.431998 137.456 0.359999C137.576 0.287998 137.684 0.228 137.78 0.18C137.924 0.155999 138.08 0.131998 138.248 0.107998C138.416 0.0599985 138.584 0.0239997 138.752 0C138.824 0.0239997 138.884 0.0599985 138.932 0.107998C139.004 0.131998 139.076 0.167999 139.148 0.216C139.292 0.288 139.412 0.372 139.508 0.467999C139.604 0.515999 139.688 0.539999 139.76 0.539999C140 0.563999 140.228 0.587998 140.444 0.611998C140.66 0.611998 140.888 0.599998 141.128 0.575998C141.2 0.551999 141.284 0.539999 141.38 0.539999C141.5 0.539999 141.608 0.539999 141.704 0.539999C141.824 0.539999 141.956 0.551999 142.1 0.575998C142.244 0.575998 142.376 0.587998 142.496 0.611998C142.64 0.611998 142.748 0.659998 142.82 0.755999C142.916 0.851999 143 0.899998 143.072 0.899998C143.408 0.995998 143.72 1.044 144.008 1.044C144.296 1.044 144.584 1.032 144.872 1.008C144.992 1.056 145.112 1.116 145.232 1.188C145.376 1.236 145.508 1.284 145.628 1.332C145.724 1.284 145.796 1.248 145.844 1.224C145.916 1.176 145.988 1.14 146.06 1.116C146.252 1.068 146.396 1.08 146.492 1.152C146.564 1.2 146.624 1.248 146.672 1.296C146.744 1.344 146.816 1.392 146.888 1.44C146.936 1.512 146.984 1.584 147.032 1.656C147.08 1.728 147.152 1.788 147.248 1.836H147.752C147.848 1.86 147.956 1.956 148.076 2.124C148.22 2.292 148.352 2.46 148.472 2.628C148.616 2.796 148.772 2.976 148.94 3.168C149.108 3.336 149.252 3.528 149.372 3.744C149.492 3.936 149.636 4.128 149.804 4.32C149.876 4.368 149.924 4.44 149.948 4.536C149.996 4.632 150.032 4.728 150.056 4.824C150.056 5.112 150.056 5.4 150.056 5.688C150.08 5.952 150.14 6.216 150.236 6.48ZM132.524 2.016V1.98H132.452L132.524 2.016ZM144.944 8.46C144.944 8.46 144.932 8.448 144.908 8.424C144.884 8.4 144.872 8.376 144.872 8.352C144.872 8.136 144.836 7.932 144.764 7.74C144.692 7.524 144.56 7.344 144.368 7.2C144.272 7.152 144.2 7.092 144.152 7.02C144.104 6.924 144.044 6.84 143.972 6.768C143.804 6.552 143.612 6.372 143.396 6.228C143.372 6.18 143.324 6.156 143.252 6.156C143.18 6.132 143.12 6.108 143.072 6.084C142.952 6.156 142.748 6.228 142.46 6.3C142.268 6.18 142.064 6.12 141.848 6.12C141.632 6.12 141.404 6.144 141.164 6.192C140.924 6.192 140.672 6.192 140.408 6.192C140.168 6.168 139.928 6.192 139.688 6.264C139.424 6.24 139.16 6.24 138.896 6.264C138.632 6.288 138.368 6.312 138.104 6.336C137.888 6.336 137.732 6.348 137.636 6.372C137.468 6.468 137.3 6.516 137.132 6.516C136.988 6.492 136.832 6.504 136.664 6.552C136.568 6.648 136.508 6.768 136.484 6.912C136.46 7.056 136.424 7.188 136.376 7.308C136.52 7.86 136.496 8.412 136.304 8.964C136.424 9.132 136.508 9.3 136.556 9.468C136.628 9.612 136.628 9.78 136.556 9.972C136.556 9.996 136.556 10.02 136.556 10.044C136.58 10.068 136.592 10.092 136.592 10.116C136.64 10.26 136.664 10.404 136.664 10.548C136.664 10.692 136.64 10.836 136.592 10.98C136.544 11.004 136.484 11.04 136.412 11.088C136.364 11.112 136.316 11.148 136.268 11.196C136.388 11.316 136.532 11.376 136.7 11.376C136.772 11.328 136.856 11.292 136.952 11.268C137.048 11.22 137.144 11.16 137.24 11.088C137.648 11.208 138.056 11.256 138.464 11.232C138.896 11.208 139.304 11.28 139.688 11.448H139.94C140.036 11.448 140.144 11.436 140.264 11.412C140.384 11.388 140.492 11.376 140.588 11.376C140.684 11.304 140.816 11.244 140.984 11.196C141.512 11.052 141.98 10.812 142.388 10.476C142.556 10.356 142.724 10.284 142.892 10.26C143.06 10.212 143.228 10.176 143.396 10.152C143.468 10.152 143.54 10.152 143.612 10.152C143.708 10.152 143.804 10.14 143.9 10.116C143.972 9.924 144.092 9.768 144.26 9.648C144.452 9.504 144.608 9.336 144.728 9.144C144.632 9.024 144.632 8.916 144.728 8.82C144.848 8.724 144.92 8.604 144.944 8.46Z" fill="black"/>
<path d="M122.084 20.052C122.06 20.028 122.036 20.016 122.012 20.016L122.048 20.052C121.952 20.1 121.88 20.208 121.832 20.376C121.808 20.544 121.748 20.664 121.652 20.736C121.628 20.808 121.544 20.916 121.4 21.06C121.256 21.204 121.148 21.264 121.076 21.24C120.74 21.168 120.344 21.168 119.888 21.24C119.816 21.312 119.744 21.384 119.672 21.456C119.6 21.528 119.504 21.612 119.384 21.708C119.36 21.708 119.336 21.72 119.312 21.744C119.288 21.744 119.252 21.744 119.204 21.744C119.132 21.768 119.024 21.78 118.88 21.78C118.112 21.756 117.356 21.9 116.612 22.212C116.444 22.26 116.264 22.296 116.072 22.32C115.88 22.32 115.688 22.284 115.496 22.212C115.352 22.14 115.208 22.104 115.064 22.104C114.944 22.08 114.812 22.08 114.668 22.104C114.356 22.104 114.056 22.056 113.768 21.96C113.648 21.984 113.516 22.008 113.372 22.032C113.252 22.056 113.132 22.092 113.012 22.14C112.892 22.188 112.772 22.248 112.652 22.32C112.532 22.416 112.4 22.452 112.256 22.428C112.232 22.38 112.196 22.332 112.148 22.284C112.1 22.212 112.052 22.128 112.004 22.032C111.956 22.008 111.896 21.984 111.824 21.96C111.752 21.912 111.692 21.876 111.644 21.852C111.332 21.804 111.044 21.696 110.78 21.528C110.42 21.288 110.072 21.108 109.736 20.988C109.568 20.94 109.424 20.856 109.304 20.736C109.208 20.592 109.1 20.472 108.98 20.376C108.884 20.136 108.8 19.908 108.728 19.692C108.656 19.476 108.608 19.248 108.584 19.008C108.512 18.96 108.452 18.912 108.404 18.864C108.356 18.792 108.308 18.732 108.26 18.684C108.116 18.588 108.044 18.504 108.044 18.432C108.02 18.216 107.948 18.048 107.828 17.928C107.708 17.808 107.6 17.64 107.504 17.424C107.504 17.376 107.492 17.304 107.468 17.208C107.468 17.112 107.456 17.016 107.432 16.92C107.432 16.872 107.432 16.812 107.432 16.74C107.432 16.644 107.42 16.572 107.396 16.524C107.3 16.332 107.204 16.152 107.108 15.984C107.012 15.792 106.928 15.612 106.856 15.444C106.856 15.324 106.88 15.144 106.928 14.904C107.048 14.4 107.036 13.908 106.892 13.428C106.82 13.26 106.772 13.092 106.748 12.924C106.724 12.756 106.688 12.588 106.64 12.42C106.664 12.372 106.688 12.312 106.712 12.24C106.76 12.144 106.808 12.072 106.856 12.024L106.604 11.268C106.556 11.148 106.484 11.04 106.388 10.944C106.316 10.824 106.244 10.716 106.172 10.62C106.148 10.428 106.184 10.248 106.28 10.08C106.4 9.912 106.472 9.744 106.496 9.576C106.496 9.504 106.484 9.432 106.46 9.36C106.46 9.288 106.46 9.216 106.46 9.144C106.652 8.88 106.772 8.604 106.82 8.316C106.892 8.028 106.94 7.728 106.964 7.416C107.132 7.32 107.276 7.212 107.396 7.092C107.516 6.972 107.6 6.816 107.648 6.624C107.672 6.552 107.684 6.468 107.684 6.372C107.708 6.276 107.732 6.18 107.756 6.084C107.876 5.892 107.996 5.7 108.116 5.508C108.26 5.292 108.392 5.1 108.512 4.932C108.56 4.812 108.596 4.68 108.62 4.536C108.668 4.392 108.74 4.272 108.836 4.176C108.956 4.104 109.04 4.008 109.088 3.888C109.16 3.768 109.22 3.648 109.268 3.528C109.436 3.504 109.58 3.468 109.7 3.42C109.82 3.372 109.928 3.336 110.024 3.312C110.144 3.24 110.204 3.168 110.204 3.096C110.276 2.76 110.42 2.52 110.636 2.376C110.876 2.208 111.14 2.088 111.428 2.016C111.524 1.992 111.608 1.98 111.68 1.98C111.752 1.956 111.848 1.932 111.968 1.908C112.016 1.86 112.076 1.8 112.148 1.728C112.22 1.632 112.292 1.536 112.364 1.44C112.508 1.392 112.64 1.344 112.76 1.296C112.904 1.248 113.024 1.2 113.12 1.152H113.372C113.564 1.224 113.756 1.296 113.948 1.368C114.164 1.416 114.392 1.476 114.632 1.548C114.824 1.524 115.016 1.488 115.208 1.44C115.424 1.368 115.628 1.356 115.82 1.404C115.844 1.404 115.868 1.416 115.892 1.44C115.916 1.44 115.94 1.428 115.964 1.404C116.132 1.404 116.3 1.38 116.468 1.332C116.636 1.284 116.804 1.272 116.972 1.296C117.116 1.296 117.26 1.284 117.404 1.26C117.572 1.236 117.728 1.188 117.872 1.116C117.992 1.092 118.1 1.08 118.196 1.08C118.316 1.056 118.436 1.068 118.556 1.116C118.628 1.188 118.7 1.26 118.772 1.332C118.844 1.38 118.928 1.452 119.024 1.548C119.216 1.572 119.42 1.62 119.636 1.692C119.876 1.74 120.116 1.8 120.356 1.872C120.476 1.896 120.584 1.956 120.68 2.052C120.8 2.148 120.944 2.22 121.112 2.268C121.256 2.316 121.4 2.352 121.544 2.376C121.712 2.376 121.88 2.376 122.048 2.376C122.432 2.76 122.888 3.024 123.416 3.168C123.464 3.192 123.512 3.216 123.56 3.24C123.608 3.264 123.656 3.288 123.704 3.312C123.896 3.48 124.076 3.66 124.244 3.852C124.436 4.02 124.616 4.188 124.784 4.356C124.952 4.548 125.048 4.752 125.072 4.968C125.264 5.136 125.372 5.268 125.396 5.364C125.444 5.436 125.468 5.664 125.468 6.048C125.612 6.12 125.744 6.204 125.864 6.3C125.984 6.372 126.056 6.492 126.08 6.66C126.128 6.756 126.176 6.852 126.224 6.948C126.272 7.02 126.308 7.104 126.332 7.2C126.404 7.296 126.476 7.38 126.548 7.452C126.644 7.5 126.74 7.572 126.836 7.668C126.908 7.836 126.968 8.004 127.016 8.172C127.064 8.316 127.064 8.484 127.016 8.676C126.968 8.844 126.956 9.024 126.98 9.216C127.004 9.408 127.004 9.612 126.98 9.828C126.956 10.02 126.956 10.224 126.98 10.44C127.004 10.656 127.028 10.86 127.052 11.052C127.076 11.148 127.088 11.256 127.088 11.376C127.088 11.472 127.1 11.556 127.124 11.628C127.22 11.796 127.268 11.964 127.268 12.132C127.292 12.3 127.292 12.468 127.268 12.636C127.268 12.732 127.268 12.828 127.268 12.924C127.292 12.996 127.304 13.092 127.304 13.212C127.208 13.524 127.124 13.848 127.052 14.184C126.98 14.496 126.872 14.796 126.728 15.084C126.584 15.348 126.44 15.612 126.296 15.876C126.152 16.14 125.984 16.392 125.792 16.632V17.244C125.672 17.316 125.552 17.4 125.432 17.496C125.336 17.568 125.252 17.628 125.18 17.676C125.012 17.964 124.904 18.228 124.856 18.468C124.832 18.684 124.784 18.888 124.712 19.08C124.616 19.176 124.52 19.272 124.424 19.368C124.328 19.464 124.22 19.56 124.1 19.656C123.98 19.752 123.836 19.836 123.668 19.908C123.524 19.956 123.356 19.944 123.164 19.872C122.948 19.824 122.768 19.836 122.624 19.908C122.528 19.932 122.432 19.956 122.336 19.98C122.24 20.004 122.156 20.028 122.084 20.052ZM121.508 11.916C121.46 11.796 121.424 11.688 121.4 11.592C121.4 11.472 121.388 11.352 121.364 11.232C121.364 11.04 121.352 10.884 121.328 10.764C121.28 10.572 121.208 10.368 121.112 10.152C121.04 9.912 120.956 9.684 120.86 9.468C120.836 9.372 120.788 9.276 120.716 9.18C120.668 9.06 120.62 8.952 120.572 8.856C120.38 8.472 120.08 8.244 119.672 8.172C119.6 8.148 119.516 8.124 119.42 8.1C119.324 8.052 119.24 8.004 119.168 7.956C119.024 7.86 118.88 7.788 118.736 7.74C118.592 7.692 118.448 7.656 118.304 7.632C118.112 7.584 117.908 7.536 117.692 7.488C117.476 7.416 117.272 7.368 117.08 7.344C116.84 7.224 116.612 7.236 116.396 7.38C115.748 7.644 115.16 7.992 114.632 8.424C114.104 8.832 113.648 9.396 113.264 10.116C113.192 10.212 113.12 10.32 113.048 10.44C113 10.56 112.952 10.68 112.904 10.8C112.808 10.92 112.724 11.052 112.652 11.196C112.58 11.316 112.52 11.436 112.472 11.556C112.496 11.748 112.58 11.904 112.724 12.024C112.868 12.144 112.952 12.3 112.976 12.492C112.976 12.588 112.94 12.684 112.868 12.78C112.796 12.852 112.748 12.936 112.724 13.032C112.772 13.128 112.832 13.236 112.904 13.356C112.976 13.476 113.036 13.596 113.084 13.716C113.156 13.836 113.204 13.968 113.228 14.112C113.276 14.232 113.312 14.364 113.336 14.508C113.384 14.628 113.42 14.748 113.444 14.868C113.492 14.988 113.528 15.108 113.552 15.228L114.056 15.624C114.128 15.672 114.2 15.744 114.272 15.84C114.368 15.912 114.464 15.972 114.56 16.02C114.848 16.092 115.1 16.164 115.316 16.236C115.508 16.284 115.676 16.308 115.82 16.308C115.964 16.308 116.12 16.308 116.288 16.308C116.288 16.308 116.276 16.308 116.252 16.308C116.252 16.308 116.252 16.32 116.252 16.344H116.324C116.3 16.344 116.288 16.332 116.288 16.308C116.336 16.26 116.396 16.236 116.468 16.236C116.54 16.212 116.6 16.2 116.648 16.2C116.792 16.2 116.936 16.212 117.08 16.236C117.248 16.236 117.416 16.224 117.584 16.2C117.632 16.152 117.692 16.152 117.764 16.2C117.86 16.224 117.944 16.248 118.016 16.272C118.112 16.272 118.184 16.248 118.232 16.2C118.232 16.104 118.22 16.02 118.196 15.948C118.196 15.876 118.232 15.816 118.304 15.768C118.616 15.6 118.916 15.468 119.204 15.372C119.324 15.276 119.42 15.192 119.492 15.12C119.588 15.048 119.672 14.964 119.744 14.868C119.84 14.82 119.912 14.76 119.96 14.688C120.032 14.616 120.116 14.568 120.212 14.544C120.428 14.472 120.608 14.376 120.752 14.256C120.92 14.112 121.076 13.968 121.22 13.824C121.244 13.776 121.256 13.74 121.256 13.716C121.28 13.668 121.304 13.62 121.328 13.572C121.592 13.02 121.652 12.468 121.508 11.916Z" fill="black"/>
<path d="M103.244 10.836C103.292 11.004 103.28 11.172 103.208 11.34C103.136 11.508 103.124 11.688 103.172 11.88C103.172 11.976 103.148 12.072 103.1 12.168C103.1 12.216 103.088 12.264 103.064 12.312C103.04 12.336 103.028 12.36 103.028 12.384C103.052 12.768 103.052 13.032 103.028 13.176C103.028 13.296 102.968 13.548 102.848 13.932C102.872 14.028 102.884 14.148 102.884 14.292C102.908 14.412 102.932 14.544 102.956 14.688C102.932 14.856 102.872 15.072 102.776 15.336C102.704 15.288 102.632 15.252 102.56 15.228C102.512 15.204 102.464 15.18 102.416 15.156C102.272 15.108 102.2 15.168 102.2 15.336C102.2 15.504 102.224 15.66 102.272 15.804C102.344 15.924 102.428 16.044 102.524 16.164C102.476 16.356 102.428 16.56 102.38 16.776C102.356 16.992 102.32 17.22 102.272 17.46C102.152 17.676 102.02 17.904 101.876 18.144C101.732 18.36 101.54 18.528 101.3 18.648C101.276 18.768 101.252 18.876 101.228 18.972C101.204 19.044 101.168 19.14 101.12 19.26C100.904 19.428 100.688 19.608 100.472 19.8C100.256 19.968 100.076 20.148 99.9321 20.34C99.8121 20.436 99.7041 20.472 99.6081 20.448C99.5121 20.424 99.4161 20.424 99.3201 20.448C99.1521 20.568 98.9841 20.688 98.8161 20.808C98.6721 20.928 98.5161 21.048 98.3481 21.168C98.1801 21.264 98.0241 21.372 97.8801 21.492C97.7361 21.612 97.5801 21.732 97.4121 21.852H96.8721C96.7521 21.948 96.6441 22.032 96.5481 22.104C96.4521 22.152 96.3441 22.212 96.2241 22.284C96.1521 22.284 96.0921 22.296 96.0441 22.32C96.0201 22.32 95.9841 22.308 95.9361 22.284C95.6961 22.26 95.5281 22.272 95.4321 22.32C95.3361 22.344 95.1441 22.416 94.8561 22.536C94.6401 22.608 94.4241 22.68 94.2081 22.752C93.9921 22.848 93.7761 22.944 93.5601 23.04C93.2961 22.92 93.0201 22.86 92.7321 22.86C92.4681 22.86 92.1921 22.86 91.9041 22.86C91.7601 22.764 91.6161 22.68 91.4721 22.608C91.3761 22.56 91.2921 22.524 91.2201 22.5C91.1721 22.476 91.1001 22.452 91.0041 22.428C90.9561 22.428 90.8841 22.428 90.7881 22.428C90.7161 22.428 90.6321 22.452 90.5361 22.5C90.4881 22.524 90.4281 22.56 90.3561 22.608C90.2841 22.656 90.2241 22.716 90.1761 22.788C89.7201 22.716 89.2521 22.644 88.7721 22.572C88.2921 22.524 87.8121 22.452 87.3321 22.356C87.1401 22.308 86.9481 22.26 86.7561 22.212C86.5881 22.14 86.4081 22.08 86.2161 22.032C86.0721 22.056 85.9281 22.08 85.7841 22.104C85.6401 22.128 85.4841 22.164 85.3161 22.212C84.9321 22.26 84.6561 22.092 84.4881 21.708C84.4881 21.66 84.4761 21.612 84.4521 21.564C84.4521 21.516 84.4521 21.48 84.4521 21.456C84.5001 21.192 84.5481 20.94 84.5961 20.7C84.6441 20.46 84.6801 20.232 84.7041 20.016C84.7041 19.968 84.7521 19.896 84.8481 19.8V19.656C84.7521 19.584 84.6561 19.512 84.5601 19.44C84.4881 19.368 84.4161 19.296 84.3441 19.224L84.3081 15.984V15.948H84.5601C84.5361 15.9 84.5001 15.864 84.4521 15.84C84.4041 15.792 84.3561 15.756 84.3081 15.732C84.3081 15.732 84.3441 15.624 84.4161 15.408C84.4881 15.192 84.5361 15.036 84.5601 14.94C84.6081 14.796 84.5961 14.676 84.5241 14.58C84.4761 14.484 84.4401 14.388 84.4161 14.292C84.4641 14.196 84.5121 14.112 84.5601 14.04C84.6081 13.944 84.6441 13.848 84.6681 13.752C84.6441 13.632 84.6081 13.524 84.5601 13.428C84.5121 13.332 84.4641 13.236 84.4161 13.14C84.3921 13.02 84.3921 12.9 84.4161 12.78C84.4641 12.636 84.4881 12.516 84.4881 12.42C84.5361 12.3 84.5481 12.18 84.5241 12.06C84.5001 11.94 84.4881 11.796 84.4881 11.628C84.4161 11.364 84.3081 11.076 84.1641 10.764C84.2361 10.62 84.2961 10.476 84.3441 10.332C84.3921 10.188 84.4401 10.044 84.4881 9.9L84.3801 9.396C84.4281 9.204 84.4761 9.012 84.5241 8.82C84.5961 8.604 84.6441 8.412 84.6681 8.244C84.5721 7.884 84.5241 7.536 84.5241 7.2C84.5481 6.84 84.5601 6.48 84.5601 6.12C84.5601 5.928 84.6201 5.712 84.7401 5.472C84.7881 5.424 84.8121 5.376 84.8121 5.328C84.8361 5.256 84.8601 5.208 84.8841 5.184C84.7641 4.944 84.6921 4.764 84.6681 4.644C84.6681 4.5 84.6921 4.356 84.7401 4.212C84.7881 4.044 84.7521 3.9 84.6321 3.78C84.5601 3.516 84.5361 3.276 84.5601 3.06C84.5841 2.82 84.6201 2.58 84.6681 2.34C84.7881 2.22 84.8841 2.1 84.9561 1.98C85.0521 1.836 85.1481 1.692 85.2441 1.548C85.3641 1.524 85.4841 1.5 85.6041 1.476C85.7481 1.428 85.8681 1.416 85.9641 1.44C86.3481 1.512 86.7561 1.452 87.1881 1.26C87.3081 1.188 87.4281 1.164 87.5481 1.188C87.6921 1.212 87.8361 1.248 87.9801 1.296C88.4361 1.224 88.8921 1.152 89.3481 1.08C89.8041 1.008 90.2481 0.911998 90.6801 0.791998C90.8001 0.743999 90.9201 0.731999 91.0401 0.755999C91.1601 0.779998 91.3041 0.791998 91.4721 0.791998L92.1201 0.504C92.2401 0.527999 92.3601 0.563998 92.4801 0.611998C92.6001 0.635997 92.7201 0.671999 92.8401 0.719999C92.9841 0.696 93.1281 0.659998 93.2721 0.611998C93.4161 0.563998 93.5721 0.527999 93.7401 0.504C93.8361 0.551999 93.9321 0.612 94.0281 0.684C94.1241 0.755999 94.2201 0.815998 94.3161 0.863998C94.5801 0.839999 94.8201 0.792 95.0361 0.719999C95.2761 0.647999 95.5161 0.599998 95.7561 0.575998C95.8521 0.671999 95.9241 0.779998 95.9721 0.899998C96.0201 0.995998 96.0921 1.08 96.1881 1.152C96.2841 1.272 96.4161 1.332 96.5841 1.332C96.7761 1.308 96.9081 1.224 96.9801 1.08C97.0281 0.959998 97.1001 0.911999 97.1961 0.935999C97.3161 0.959999 97.4361 1.068 97.5561 1.26C97.7001 1.26 97.8441 1.248 97.9881 1.224C98.1321 1.2 98.2881 1.188 98.4561 1.188C98.5761 1.26 98.6721 1.332 98.7441 1.404C98.8401 1.452 98.9361 1.524 99.0321 1.62C99.1281 1.716 99.2241 1.812 99.3201 1.908C99.4161 1.98 99.5241 2.052 99.6441 2.124C99.7881 2.196 99.8841 2.304 99.9321 2.448C100.028 2.592 100.136 2.736 100.256 2.88C100.4 3 100.532 3.12 100.652 3.24C100.844 3.456 101.132 3.624 101.516 3.744C101.564 3.768 101.612 3.792 101.66 3.816C101.732 3.84 101.78 3.864 101.804 3.888C101.852 4.08 101.9 4.272 101.948 4.464C102.02 4.632 102.068 4.812 102.092 5.004C102.068 5.22 102.032 5.4 101.984 5.544C102.032 5.76 102.128 5.94 102.272 6.084C102.416 6.204 102.548 6.336 102.668 6.48C103.004 7.008 103.172 7.62 103.172 8.316C103.172 8.556 103.184 8.796 103.208 9.036C103.232 9.252 103.22 9.468 103.172 9.684C103.148 9.876 103.16 10.068 103.208 10.26C103.28 10.452 103.292 10.644 103.244 10.836ZM97.9161 10.152C97.8681 10.032 97.7961 9.912 97.7001 9.792C97.6281 9.648 97.5681 9.504 97.5201 9.36C97.4481 9.216 97.3881 9.072 97.3401 8.928C97.2921 8.76 97.2441 8.592 97.1961 8.424C96.8121 8.376 96.4761 8.256 96.1881 8.064C95.9241 7.872 95.6601 7.68 95.3961 7.488H94.8561C94.6161 7.296 94.3881 7.128 94.1721 6.984C93.9561 6.816 93.7281 6.648 93.4881 6.48C93.0801 6.432 92.6721 6.432 92.2641 6.48C91.8801 6.504 91.5201 6.48 91.1841 6.408C90.9681 6.48 90.7761 6.54 90.6081 6.588C90.4641 6.612 90.3201 6.648 90.1761 6.696C90.0321 6.792 89.9361 6.864 89.8881 6.912C89.8161 7.272 89.7921 7.632 89.8161 7.992C89.8401 8.352 89.8641 8.712 89.8881 9.072C89.9841 9.216 89.9961 9.36 89.9241 9.504C89.8761 9.624 89.8641 9.744 89.8881 9.864C89.9121 9.936 89.9241 10.008 89.9241 10.08C89.9481 10.152 89.9721 10.248 89.9961 10.368C89.9481 10.512 89.9121 10.668 89.8881 10.836C89.8881 10.98 89.8761 11.148 89.8521 11.34C89.8521 11.724 89.8161 12.084 89.7441 12.42C89.8161 12.54 89.8761 12.66 89.9241 12.78C89.9721 12.876 90.0201 12.984 90.0681 13.104C89.9961 13.32 89.9121 13.548 89.8161 13.788C89.7441 14.004 89.6841 14.208 89.6361 14.4C89.6361 14.52 89.6361 14.64 89.6361 14.76C89.6601 14.88 89.6601 15 89.6361 15.12C89.6121 15.408 89.5401 15.696 89.4201 15.984L89.5641 16.236C89.7081 16.596 89.9961 16.728 90.4281 16.632C90.6921 16.632 90.9081 16.596 91.0761 16.524C91.2441 16.476 91.4001 16.476 91.5441 16.524C91.7121 16.548 91.8801 16.548 92.0481 16.524C92.2401 16.476 92.4441 16.416 92.6601 16.344C92.9001 16.248 93.1161 16.164 93.3081 16.092C93.4281 16.068 93.5361 16.044 93.6321 16.02C93.7281 15.996 93.8241 15.996 93.9201 16.02C94.1361 16.044 94.3641 16.044 94.6041 16.02C94.8441 15.996 95.0841 15.972 95.3241 15.948C95.3721 15.9 95.4441 15.864 95.5401 15.84C95.6361 15.792 95.7201 15.744 95.7921 15.696C96.1521 15.528 96.4641 15.252 96.7281 14.868C96.8481 14.7 96.9441 14.52 97.0161 14.328C97.1121 14.112 97.2081 13.92 97.3041 13.752C97.4961 13.344 97.6401 12.948 97.7361 12.564C97.8321 12.156 97.8561 11.736 97.8081 11.304C97.7841 11.208 97.7721 11.112 97.7721 11.016C97.7961 10.92 97.8201 10.824 97.8441 10.728C97.8681 10.632 97.8921 10.536 97.9161 10.44C97.9401 10.344 97.9401 10.248 97.9161 10.152Z" fill="black"/>
<path d="M81.1446 2.736C81.2166 2.904 81.2526 3.084 81.2526 3.276C81.2766 3.468 81.2286 3.66 81.1086 3.852C81.0606 3.948 81.0366 4.044 81.0366 4.14C81.0606 4.212 81.0726 4.308 81.0726 4.428C81.0246 4.5 80.9646 4.572 80.8926 4.644C80.8206 4.692 80.7606 4.764 80.7126 4.86C80.6646 4.908 80.6166 4.968 80.5686 5.04C80.5446 5.112 80.4846 5.172 80.3886 5.22C80.2686 5.196 80.1246 5.184 79.9566 5.184C79.7886 5.184 79.6326 5.184 79.4886 5.184C79.1286 5.184 78.8046 5.28 78.5166 5.472C78.4206 5.568 78.3246 5.64 78.2286 5.688C78.1326 5.712 78.0366 5.748 77.9406 5.796C77.7966 5.94 77.7486 6.084 77.7966 6.228V6.912C77.8206 7.128 77.8446 7.344 77.8686 7.56C77.9166 7.752 77.9286 7.968 77.9046 8.208C77.8806 8.256 77.8806 8.328 77.9046 8.424C77.9286 8.496 77.9526 8.556 77.9766 8.604C77.9526 8.7 77.9166 8.784 77.8686 8.856C77.8446 8.904 77.8206 8.976 77.7966 9.072C77.8206 9.168 77.8446 9.264 77.8686 9.36C77.8926 9.432 77.9166 9.516 77.9406 9.612C77.9406 9.732 77.9286 9.816 77.9046 9.864C77.8566 10.008 77.8086 10.152 77.7606 10.296C77.7366 10.44 77.7006 10.584 77.6526 10.728C77.5806 10.896 77.5686 11.052 77.6166 11.196C77.6646 11.34 77.6526 11.484 77.5806 11.628C77.5806 12.132 77.5566 12.624 77.5086 13.104C77.4606 13.584 77.4246 14.064 77.4006 14.544C77.4006 15.168 77.5086 15.804 77.7246 16.452C77.8206 16.668 77.9766 16.776 78.1926 16.776C78.2406 16.752 78.2886 16.716 78.3366 16.668C78.4086 16.62 78.4806 16.584 78.5526 16.56C78.6246 16.56 78.6846 16.584 78.7326 16.632C78.9246 16.848 79.1406 16.992 79.3806 17.064C79.7646 17.16 79.8726 17.352 79.7046 17.64C79.6326 17.808 79.5966 17.988 79.5966 18.18C79.6206 18.372 79.6206 18.564 79.5966 18.756C79.5486 19.284 79.5246 19.824 79.5246 20.376C79.5246 20.904 79.5606 21.444 79.6326 21.996C79.6326 22.26 79.6086 22.428 79.5606 22.5C79.5366 22.596 79.3926 22.74 79.1286 22.932H79.0206C78.8286 22.908 78.6366 22.884 78.4446 22.86C78.2766 22.836 78.1086 22.812 77.9406 22.788C77.4846 22.86 77.0766 22.896 76.7166 22.896C76.5486 22.92 76.3806 22.956 76.2126 23.004C76.0686 23.076 75.9006 23.1 75.7086 23.076C75.5166 23.028 75.3246 23.028 75.1326 23.076C74.9406 23.124 74.7486 23.148 74.5566 23.148C74.4606 23.1 74.3646 23.064 74.2686 23.04C74.1966 23.016 74.1006 22.98 73.9806 22.932C73.4046 23.028 72.8286 23.088 72.2526 23.112C71.6766 23.136 71.0886 23.16 70.4886 23.184C70.3686 23.016 70.2486 22.86 70.1286 22.716C70.0086 22.596 69.9006 22.464 69.8046 22.32C69.7566 22.152 69.6606 22.008 69.5166 21.888C69.3966 21.768 69.2766 21.66 69.1566 21.564C69.1326 21.324 69.0846 21.096 69.0126 20.88C68.9646 20.688 68.9646 20.496 69.0126 20.304C69.0846 20.184 69.1086 20.064 69.0846 19.944C69.0366 19.728 69.0246 19.512 69.0486 19.296C69.0966 19.056 69.1446 18.828 69.1926 18.612V18.18C69.3846 18.132 69.5766 18.096 69.7686 18.072C69.9606 18.024 70.1526 18.024 70.3446 18.072C70.4406 18.024 70.5246 17.976 70.5966 17.928C70.6686 17.856 70.7526 17.784 70.8486 17.712C70.9686 17.76 71.0886 17.808 71.2086 17.856C71.3286 17.904 71.4606 17.952 71.6046 18C71.8446 17.856 72.1206 17.664 72.4326 17.424C72.4806 17.28 72.5046 17.172 72.5046 17.1C72.5046 16.836 72.5046 16.572 72.5046 16.308C72.5046 16.02 72.5166 15.744 72.5406 15.48V15.372C72.4446 15.132 72.4086 14.904 72.4326 14.688C72.4566 14.472 72.4566 14.244 72.4326 14.004V13.536C72.4806 12.984 72.4926 12.444 72.4686 11.916C72.4686 11.364 72.4566 10.812 72.4326 10.26L72.6846 9.792C72.6606 9.672 72.6366 9.552 72.6126 9.432C72.5886 9.312 72.5646 9.192 72.5406 9.072C72.5646 8.952 72.5886 8.844 72.6126 8.748C72.6606 8.652 72.6966 8.544 72.7206 8.424C72.7206 8.328 72.7086 8.256 72.6846 8.208C72.5646 7.92 72.5166 7.656 72.5406 7.416V6.876C72.5406 6.78 72.5166 6.708 72.4686 6.66C72.4206 6.588 72.3966 6.504 72.3966 6.408C72.4206 6.36 72.4326 6.252 72.4326 6.084C72.4086 5.94 72.3846 5.796 72.3606 5.652C72.3366 5.508 72.3006 5.364 72.2526 5.22C72.1326 5.1 72.0006 5.064 71.8566 5.112C71.7126 5.136 71.5806 5.136 71.4606 5.112C71.3406 5.064 71.2086 5.04 71.0646 5.04C70.9206 5.04 70.7646 5.04 70.5966 5.04C70.4286 4.944 70.2366 4.908 70.0206 4.932C69.8286 4.932 69.6366 4.896 69.4446 4.824C69.3486 4.704 69.3006 4.56 69.3006 4.392C69.3246 4.224 69.3006 4.104 69.2286 4.032C69.1806 3.936 69.1806 3.816 69.2286 3.672C69.2766 3.504 69.2766 3.36 69.2286 3.24C69.3246 3.12 69.3366 3.036 69.2646 2.988C69.1926 2.94 69.1926 2.844 69.2646 2.7C69.3366 2.58 69.3726 2.448 69.3726 2.304C69.3726 2.136 69.4206 2.004 69.5166 1.908C69.5646 1.86 69.5766 1.788 69.5526 1.692C69.5526 1.572 69.5646 1.464 69.5886 1.368C69.6366 1.32 69.7446 1.296 69.9126 1.296C70.0806 1.272 70.1766 1.236 70.2006 1.188C70.2966 1.068 70.4046 0.984 70.5246 0.935999C70.6686 0.888 70.8126 0.827999 70.9566 0.755999C71.0046 0.755999 71.0646 0.755999 71.1366 0.755999C71.2086 0.731999 71.2926 0.719999 71.3886 0.719999C71.5806 0.719999 71.7846 0.719999 72.0006 0.719999C72.2166 0.719999 72.4206 0.708 72.6126 0.684C72.8046 0.635999 72.9966 0.599998 73.1886 0.575998C73.3806 0.527999 73.5846 0.492 73.8006 0.467999C74.0166 0.419999 74.2326 0.431999 74.4486 0.504C74.7606 0.599998 75.1446 0.587998 75.6006 0.467999C75.6966 0.443999 75.7806 0.419998 75.8526 0.395998C75.9246 0.371998 75.9846 0.347999 76.0326 0.323999C76.2006 0.347999 76.3446 0.371998 76.4646 0.395998C76.6086 0.419998 76.7286 0.431999 76.8246 0.431999C76.8966 0.431999 76.9686 0.419998 77.0406 0.395998C77.1366 0.371998 77.2086 0.359999 77.2566 0.359999C77.4966 0.359999 77.7126 0.371998 77.9046 0.395998C78.1206 0.395998 78.3366 0.419999 78.5526 0.467999C79.0086 0.539999 79.4166 0.563999 79.7766 0.539999C79.8966 0.515999 79.9926 0.515999 80.0646 0.539999C80.1606 0.539999 80.2206 0.539999 80.2446 0.539999C80.4126 0.563999 80.5326 0.623999 80.6046 0.719999C80.7006 0.792 80.7726 0.851998 80.8206 0.899998C81.2046 1.284 81.2886 1.68 81.0726 2.088C81.0486 2.112 81.0366 2.196 81.0366 2.34C81.0606 2.388 81.0726 2.448 81.0726 2.52C81.0966 2.568 81.1206 2.64 81.1446 2.736Z" fill="black"/>
<path d="M66.0715 6.48C66.0475 6.768 66.0475 7.056 66.0715 7.344C66.0955 7.608 66.0835 7.872 66.0355 8.136C65.9635 8.448 65.9155 8.76 65.8915 9.072C65.8675 9.384 65.8435 9.696 65.8195 10.008C65.7235 10.176 65.6395 10.356 65.5675 10.548C65.5195 10.716 65.4475 10.872 65.3515 11.016C65.2555 11.16 65.1595 11.304 65.0635 11.448C64.9675 11.568 64.8595 11.712 64.7395 11.88C64.6915 11.928 64.6675 12.012 64.6675 12.132C64.4515 12.42 64.2115 12.684 63.9475 12.924C63.7075 13.14 63.4315 13.32 63.1195 13.464C62.9515 13.752 62.7835 13.98 62.6155 14.148C62.5675 14.22 62.4835 14.28 62.3635 14.328C62.0515 14.472 61.7035 14.58 61.3195 14.652C60.8395 14.772 60.5035 15.024 60.3115 15.408V16.056C60.3355 16.152 60.4075 16.212 60.5275 16.236C60.6715 16.26 60.7915 16.332 60.8875 16.452C60.8875 16.476 60.9115 16.5 60.9595 16.524C61.0075 16.548 61.0315 16.584 61.0315 16.632C61.1275 17.04 61.3675 17.304 61.7515 17.424C61.8955 17.616 62.0275 17.808 62.1475 18C62.2915 18.168 62.4235 18.336 62.5435 18.504C62.6635 18.576 62.7715 18.648 62.8675 18.72C62.9875 18.768 63.1075 18.828 63.2275 18.9C63.2755 18.996 63.3355 19.116 63.4075 19.26C63.5035 19.38 63.5875 19.5 63.6595 19.62C63.7555 19.716 63.8515 19.8 63.9475 19.872C64.0435 19.92 64.1035 19.968 64.1275 20.016C64.1995 20.328 64.1875 20.532 64.0915 20.628C63.8035 20.964 63.6115 21.276 63.5155 21.564C63.4675 21.636 63.4195 21.696 63.3715 21.744C63.3235 21.768 63.2755 21.804 63.2275 21.852C63.0595 21.948 62.8795 22.008 62.6875 22.032C62.4955 22.056 62.3395 22.128 62.2195 22.248C62.0995 22.344 61.9675 22.392 61.8235 22.392C61.6795 22.416 61.5475 22.476 61.4275 22.572C61.2355 22.716 61.0555 22.872 60.8875 23.04C60.7435 23.232 60.5515 23.388 60.3115 23.508C60.2155 23.484 60.0955 23.472 59.9515 23.472C59.8075 23.472 59.6755 23.472 59.5555 23.472L58.8355 22.968C58.7395 22.872 58.6915 22.812 58.6915 22.788C58.6435 22.668 58.5955 22.548 58.5475 22.428C58.4995 22.332 58.4515 22.236 58.4035 22.14C58.3795 22.044 58.3195 21.96 58.2235 21.888C58.1275 21.792 58.0555 21.696 58.0075 21.6V21.312C58.0075 21.12 57.9235 21.024 57.7555 21.024C57.6835 21 57.6235 20.988 57.5755 20.988C57.5275 20.988 57.4795 20.988 57.4315 20.988C57.0715 20.724 56.7355 20.4 56.4235 20.016C56.1835 19.776 55.9435 19.596 55.7035 19.476C55.4875 19.332 55.2835 19.152 55.0915 18.936C54.8995 18.72 54.7075 18.504 54.5155 18.288C54.3955 18.144 54.2755 18 54.1555 17.856C54.0355 17.688 53.9035 17.556 53.7595 17.46C53.5435 17.436 53.3275 17.436 53.1115 17.46C52.8955 17.484 52.7035 17.544 52.5355 17.64C52.4875 17.64 52.4275 17.7 52.3555 17.82C52.3315 17.988 52.3075 18.156 52.2835 18.324C52.2595 18.468 52.2355 18.624 52.2115 18.792C52.3075 19.248 52.3195 19.716 52.2475 20.196C52.1755 20.46 52.1275 20.724 52.1035 20.988C52.1035 21.252 52.0915 21.516 52.0675 21.78C52.0675 21.876 52.0675 21.984 52.0675 22.104C52.0675 22.224 52.0435 22.332 51.9955 22.428C51.9475 22.644 51.8155 22.788 51.5995 22.86H51.4555C51.3595 22.836 51.2635 22.812 51.1675 22.788C51.0955 22.788 50.9995 22.776 50.8795 22.752C50.5195 22.848 50.1475 22.86 49.7635 22.788C49.3795 22.716 48.9955 22.656 48.6115 22.608C48.2275 22.56 47.8555 22.5 47.4955 22.428C47.4475 22.428 47.3995 22.416 47.3515 22.392C47.3275 22.392 47.2915 22.38 47.2435 22.356C47.1475 22.26 47.0995 22.176 47.0995 22.104C47.0995 21.888 47.0875 21.672 47.0635 21.456C47.0395 21.216 47.0035 20.976 46.9555 20.736C46.8355 20.304 46.8595 19.932 47.0275 19.62C47.0035 19.404 46.9795 19.188 46.9555 18.972C46.9315 18.756 46.9315 18.552 46.9555 18.36C47.0035 18.264 47.0035 18.144 46.9555 18C46.9315 17.856 46.8715 17.808 46.7755 17.856C46.7515 17.88 46.7155 17.892 46.6675 17.892C46.6195 17.868 46.5955 17.844 46.5955 17.82C46.5715 17.772 46.5475 17.724 46.5235 17.676C46.4995 17.604 46.4755 17.556 46.4515 17.532C46.4515 17.412 46.4515 17.28 46.4515 17.136C46.4515 16.992 46.4395 16.86 46.4155 16.74C46.4155 16.62 46.4155 16.5 46.4155 16.38C46.4155 16.26 46.3915 16.152 46.3435 16.056C46.2715 15.816 46.2355 15.564 46.2355 15.3C46.2355 15.036 46.2355 14.784 46.2355 14.544C46.2115 14.448 46.1875 14.376 46.1635 14.328C46.1395 14.256 46.1035 14.184 46.0555 14.112C46.1035 13.944 46.1395 13.788 46.1635 13.644C46.2115 13.476 46.1755 13.308 46.0555 13.14C46.1035 12.948 46.1155 12.756 46.0915 12.564C46.0675 12.348 46.1155 12.132 46.2355 11.916C46.2835 11.796 46.2955 11.676 46.2715 11.556C46.2475 11.436 46.2235 11.292 46.1995 11.124C46.2475 10.932 46.3075 10.752 46.3795 10.584C46.4515 10.392 46.5115 10.176 46.5595 9.936C46.5355 9.816 46.4995 9.612 46.4515 9.324C46.4035 9.204 46.3675 9.096 46.3435 9C46.3195 8.904 46.2955 8.808 46.2715 8.712C46.2475 8.592 46.2595 8.484 46.3075 8.388C46.3795 8.268 46.3915 8.148 46.3435 8.028C46.3195 7.86 46.3075 7.752 46.3075 7.704C46.3315 7.656 46.3915 7.56 46.4875 7.416C46.4635 7.368 46.4515 7.332 46.4515 7.308C46.4515 7.26 46.4395 7.224 46.4155 7.2C46.1995 6.912 46.1515 6.552 46.2715 6.12C46.3195 5.976 46.3675 5.832 46.4155 5.688C46.4875 5.544 46.5355 5.412 46.5595 5.292C46.5355 5.196 46.5115 5.1 46.4875 5.004C46.4875 4.908 46.4755 4.812 46.4515 4.716L46.7035 3.852C46.6555 3.684 46.6195 3.516 46.5955 3.348C46.5715 3.18 46.5355 3.012 46.4875 2.844C46.4875 2.628 46.5835 2.4 46.7755 2.16C46.8715 2.04 46.9675 1.992 47.0635 2.016C47.1835 2.04 47.3275 2.04 47.4955 2.016C47.6635 1.968 47.8315 1.908 47.9995 1.836C48.1915 1.764 48.3955 1.716 48.6115 1.692C48.8275 1.668 49.0315 1.572 49.2235 1.404C49.4155 1.284 49.6075 1.188 49.7995 1.116C49.9915 1.02 50.1835 0.947997 50.3755 0.899998C50.7595 0.971998 50.9995 1.008 51.0955 1.008C51.2155 0.983998 51.4075 0.887999 51.6715 0.719999H52.3195C52.4395 0.696 52.5595 0.671998 52.6795 0.647997C52.7995 0.599998 52.9315 0.563999 53.0755 0.539999C53.1235 0.491998 53.1955 0.431998 53.2915 0.359999C53.4115 0.287998 53.5195 0.228 53.6155 0.18C53.7595 0.155999 53.9155 0.131998 54.0835 0.107998C54.2515 0.0599985 54.4195 0.0239997 54.5875 0C54.6595 0.0239997 54.7195 0.0599985 54.7675 0.107998C54.8395 0.131998 54.9115 0.167999 54.9835 0.216C55.1275 0.288 55.2475 0.372 55.3435 0.467999C55.4395 0.515999 55.5235 0.539999 55.5955 0.539999C55.8355 0.563999 56.0635 0.587998 56.2795 0.611998C56.4955 0.611998 56.7235 0.599998 56.9635 0.575998C57.0355 0.551999 57.1195 0.539999 57.2155 0.539999C57.3355 0.539999 57.4435 0.539999 57.5395 0.539999C57.6595 0.539999 57.7915 0.551999 57.9355 0.575998C58.0795 0.575998 58.2115 0.587998 58.3315 0.611998C58.4755 0.611998 58.5835 0.659998 58.6555 0.755999C58.7515 0.851999 58.8355 0.899998 58.9075 0.899998C59.2435 0.995998 59.5555 1.044 59.8435 1.044C60.1315 1.044 60.4195 1.032 60.7075 1.008C60.8275 1.056 60.9475 1.116 61.0675 1.188C61.2115 1.236 61.3435 1.284 61.4635 1.332C61.5595 1.284 61.6315 1.248 61.6795 1.224C61.7515 1.176 61.8235 1.14 61.8955 1.116C62.0875 1.068 62.2315 1.08 62.3275 1.152C62.3995 1.2 62.4595 1.248 62.5075 1.296C62.5795 1.344 62.6515 1.392 62.7235 1.44C62.7715 1.512 62.8195 1.584 62.8675 1.656C62.9155 1.728 62.9875 1.788 63.0835 1.836H63.5875C63.6835 1.86 63.7915 1.956 63.9115 2.124C64.0555 2.292 64.1875 2.46 64.3075 2.628C64.4515 2.796 64.6075 2.976 64.7755 3.168C64.9435 3.336 65.0875 3.528 65.2075 3.744C65.3275 3.936 65.4715 4.128 65.6395 4.32C65.7115 4.368 65.7595 4.44 65.7835 4.536C65.8315 4.632 65.8675 4.728 65.8915 4.824C65.8915 5.112 65.8915 5.4 65.8915 5.688C65.9155 5.952 65.9755 6.216 66.0715 6.48ZM48.3595 2.016V1.98H48.2875L48.3595 2.016ZM60.7795 8.46C60.7795 8.46 60.7675 8.448 60.7435 8.424C60.7195 8.4 60.7075 8.376 60.7075 8.352C60.7075 8.136 60.6715 7.932 60.5995 7.74C60.5275 7.524 60.3955 7.344 60.2035 7.2C60.1075 7.152 60.0355 7.092 59.9875 7.02C59.9395 6.924 59.8795 6.84 59.8075 6.768C59.6395 6.552 59.4475 6.372 59.2315 6.228C59.2075 6.18 59.1595 6.156 59.0875 6.156C59.0155 6.132 58.9555 6.108 58.9075 6.084C58.7875 6.156 58.5835 6.228 58.2955 6.3C58.1035 6.18 57.8995 6.12 57.6835 6.12C57.4675 6.12 57.2395 6.144 56.9995 6.192C56.7595 6.192 56.5075 6.192 56.2435 6.192C56.0035 6.168 55.7635 6.192 55.5235 6.264C55.2595 6.24 54.9955 6.24 54.7315 6.264C54.4675 6.288 54.2035 6.312 53.9395 6.336C53.7235 6.336 53.5675 6.348 53.4715 6.372C53.3035 6.468 53.1355 6.516 52.9675 6.516C52.8235 6.492 52.6675 6.504 52.4995 6.552C52.4035 6.648 52.3435 6.768 52.3195 6.912C52.2955 7.056 52.2595 7.188 52.2115 7.308C52.3555 7.86 52.3315 8.412 52.1395 8.964C52.2595 9.132 52.3435 9.3 52.3915 9.468C52.4635 9.612 52.4635 9.78 52.3915 9.972C52.3915 9.996 52.3915 10.02 52.3915 10.044C52.4155 10.068 52.4275 10.092 52.4275 10.116C52.4755 10.26 52.4995 10.404 52.4995 10.548C52.4995 10.692 52.4755 10.836 52.4275 10.98C52.3795 11.004 52.3195 11.04 52.2475 11.088C52.1995 11.112 52.1515 11.148 52.1035 11.196C52.2235 11.316 52.3675 11.376 52.5355 11.376C52.6075 11.328 52.6915 11.292 52.7875 11.268C52.8835 11.22 52.9795 11.16 53.0755 11.088C53.4835 11.208 53.8915 11.256 54.2995 11.232C54.7315 11.208 55.1395 11.28 55.5235 11.448H55.7755C55.8715 11.448 55.9795 11.436 56.0995 11.412C56.2195 11.388 56.3275 11.376 56.4235 11.376C56.5195 11.304 56.6515 11.244 56.8195 11.196C57.3475 11.052 57.8155 10.812 58.2235 10.476C58.3915 10.356 58.5595 10.284 58.7275 10.26C58.8955 10.212 59.0635 10.176 59.2315 10.152C59.3035 10.152 59.3755 10.152 59.4475 10.152C59.5435 10.152 59.6395 10.14 59.7355 10.116C59.8075 9.924 59.9275 9.768 60.0955 9.648C60.2875 9.504 60.4435 9.336 60.5635 9.144C60.4675 9.024 60.4675 8.916 60.5635 8.82C60.6835 8.724 60.7555 8.604 60.7795 8.46Z" fill="black"/>
<path d="M37.9198 20.052C37.8958 20.028 37.8718 20.016 37.8478 20.016L37.8838 20.052C37.7878 20.1 37.7158 20.208 37.6678 20.376C37.6438 20.544 37.5838 20.664 37.4878 20.736C37.4638 20.808 37.3798 20.916 37.2358 21.06C37.0918 21.204 36.9838 21.264 36.9118 21.24C36.5758 21.168 36.1798 21.168 35.7238 21.24C35.6518 21.312 35.5798 21.384 35.5078 21.456C35.4358 21.528 35.3398 21.612 35.2198 21.708C35.1958 21.708 35.1718 21.72 35.1478 21.744C35.1238 21.744 35.0878 21.744 35.0398 21.744C34.9678 21.768 34.8598 21.78 34.7158 21.78C33.9478 21.756 33.1918 21.9 32.4478 22.212C32.2798 22.26 32.0998 22.296 31.9078 22.32C31.7158 22.32 31.5238 22.284 31.3318 22.212C31.1878 22.14 31.0438 22.104 30.8998 22.104C30.7798 22.08 30.6478 22.08 30.5038 22.104C30.1918 22.104 29.8918 22.056 29.6038 21.96C29.4838 21.984 29.3518 22.008 29.2078 22.032C29.0878 22.056 28.9678 22.092 28.8478 22.14C28.7278 22.188 28.6078 22.248 28.4878 22.32C28.3678 22.416 28.2358 22.452 28.0918 22.428C28.0678 22.38 28.0318 22.332 27.9838 22.284C27.9358 22.212 27.8878 22.128 27.8398 22.032C27.7918 22.008 27.7318 21.984 27.6598 21.96C27.5878 21.912 27.5278 21.876 27.4798 21.852C27.1678 21.804 26.8798 21.696 26.6158 21.528C26.2558 21.288 25.9078 21.108 25.5718 20.988C25.4038 20.94 25.2598 20.856 25.1398 20.736C25.0438 20.592 24.9358 20.472 24.8158 20.376C24.7198 20.136 24.6358 19.908 24.5638 19.692C24.4918 19.476 24.4438 19.248 24.4198 19.008C24.3478 18.96 24.2878 18.912 24.2398 18.864C24.1918 18.792 24.1438 18.732 24.0958 18.684C23.9518 18.588 23.8798 18.504 23.8798 18.432C23.8558 18.216 23.7838 18.048 23.6638 17.928C23.5438 17.808 23.4358 17.64 23.3398 17.424C23.3398 17.376 23.3278 17.304 23.3038 17.208C23.3038 17.112 23.2918 17.016 23.2678 16.92C23.2678 16.872 23.2678 16.812 23.2678 16.74C23.2678 16.644 23.2558 16.572 23.2318 16.524C23.1358 16.332 23.0398 16.152 22.9438 15.984C22.8478 15.792 22.7638 15.612 22.6918 15.444C22.6918 15.324 22.7158 15.144 22.7638 14.904C22.8838 14.4 22.8718 13.908 22.7278 13.428C22.6558 13.26 22.6078 13.092 22.5838 12.924C22.5598 12.756 22.5238 12.588 22.4758 12.42C22.4998 12.372 22.5238 12.312 22.5478 12.24C22.5958 12.144 22.6438 12.072 22.6918 12.024L22.4398 11.268C22.3918 11.148 22.3198 11.04 22.2238 10.944C22.1518 10.824 22.0798 10.716 22.0078 10.62C21.9838 10.428 22.0198 10.248 22.1158 10.08C22.2358 9.912 22.3078 9.744 22.3318 9.576C22.3318 9.504 22.3198 9.432 22.2958 9.36C22.2958 9.288 22.2958 9.216 22.2958 9.144C22.4878 8.88 22.6078 8.604 22.6558 8.316C22.7278 8.028 22.7758 7.728 22.7998 7.416C22.9678 7.32 23.1118 7.212 23.2318 7.092C23.3518 6.972 23.4358 6.816 23.4838 6.624C23.5078 6.552 23.5198 6.468 23.5198 6.372C23.5438 6.276 23.5678 6.18 23.5918 6.084C23.7118 5.892 23.8318 5.7 23.9518 5.508C24.0958 5.292 24.2278 5.1 24.3478 4.932C24.3958 4.812 24.4318 4.68 24.4558 4.536C24.5038 4.392 24.5758 4.272 24.6718 4.176C24.7918 4.104 24.8758 4.008 24.9238 3.888C24.9958 3.768 25.0558 3.648 25.1038 3.528C25.2718 3.504 25.4158 3.468 25.5358 3.42C25.6558 3.372 25.7638 3.336 25.8598 3.312C25.9798 3.24 26.0398 3.168 26.0398 3.096C26.1118 2.76 26.2558 2.52 26.4718 2.376C26.7118 2.208 26.9758 2.088 27.2638 2.016C27.3598 1.992 27.4438 1.98 27.5158 1.98C27.5878 1.956 27.6838 1.932 27.8038 1.908C27.8518 1.86 27.9118 1.8 27.9838 1.728C28.0558 1.632 28.1278 1.536 28.1998 1.44C28.3438 1.392 28.4758 1.344 28.5958 1.296C28.7398 1.248 28.8598 1.2 28.9558 1.152H29.2078C29.3998 1.224 29.5918 1.296 29.7838 1.368C29.9998 1.416 30.2278 1.476 30.4678 1.548C30.6598 1.524 30.8518 1.488 31.0438 1.44C31.2598 1.368 31.4638 1.356 31.6558 1.404C31.6798 1.404 31.7038 1.416 31.7278 1.44C31.7518 1.44 31.7758 1.428 31.7998 1.404C31.9678 1.404 32.1358 1.38 32.3038 1.332C32.4718 1.284 32.6398 1.272 32.8078 1.296C32.9518 1.296 33.0958 1.284 33.2398 1.26C33.4078 1.236 33.5638 1.188 33.7078 1.116C33.8278 1.092 33.9358 1.08 34.0318 1.08C34.1518 1.056 34.2718 1.068 34.3918 1.116C34.4638 1.188 34.5358 1.26 34.6078 1.332C34.6798 1.38 34.7638 1.452 34.8598 1.548C35.0518 1.572 35.2558 1.62 35.4718 1.692C35.7118 1.74 35.9518 1.8 36.1918 1.872C36.3118 1.896 36.4198 1.956 36.5158 2.052C36.6358 2.148 36.7798 2.22 36.9478 2.268C37.0918 2.316 37.2358 2.352 37.3798 2.376C37.5478 2.376 37.7158 2.376 37.8838 2.376C38.2678 2.76 38.7238 3.024 39.2518 3.168C39.2998 3.192 39.3478 3.216 39.3958 3.24C39.4438 3.264 39.4918 3.288 39.5398 3.312C39.7318 3.48 39.9118 3.66 40.0798 3.852C40.2718 4.02 40.4518 4.188 40.6198 4.356C40.7878 4.548 40.8838 4.752 40.9078 4.968C41.0998 5.136 41.2078 5.268 41.2318 5.364C41.2798 5.436 41.3038 5.664 41.3038 6.048C41.4478 6.12 41.5798 6.204 41.6998 6.3C41.8198 6.372 41.8918 6.492 41.9158 6.66C41.9638 6.756 42.0118 6.852 42.0598 6.948C42.1078 7.02 42.1438 7.104 42.1678 7.2C42.2398 7.296 42.3118 7.38 42.3838 7.452C42.4798 7.5 42.5758 7.572 42.6718 7.668C42.7438 7.836 42.8038 8.004 42.8518 8.172C42.8998 8.316 42.8998 8.484 42.8518 8.676C42.8038 8.844 42.7918 9.024 42.8158 9.216C42.8398 9.408 42.8398 9.612 42.8158 9.828C42.7918 10.02 42.7918 10.224 42.8158 10.44C42.8398 10.656 42.8638 10.86 42.8878 11.052C42.9118 11.148 42.9238 11.256 42.9238 11.376C42.9238 11.472 42.9358 11.556 42.9598 11.628C43.0558 11.796 43.1038 11.964 43.1038 12.132C43.1278 12.3 43.1278 12.468 43.1038 12.636C43.1038 12.732 43.1038 12.828 43.1038 12.924C43.1278 12.996 43.1398 13.092 43.1398 13.212C43.0438 13.524 42.9598 13.848 42.8878 14.184C42.8158 14.496 42.7078 14.796 42.5638 15.084C42.4198 15.348 42.2758 15.612 42.1318 15.876C41.9878 16.14 41.8198 16.392 41.6278 16.632V17.244C41.5078 17.316 41.3878 17.4 41.2678 17.496C41.1718 17.568 41.0878 17.628 41.0158 17.676C40.8478 17.964 40.7398 18.228 40.6918 18.468C40.6678 18.684 40.6198 18.888 40.5478 19.08C40.4518 19.176 40.3558 19.272 40.2598 19.368C40.1638 19.464 40.0558 19.56 39.9358 19.656C39.8158 19.752 39.6718 19.836 39.5038 19.908C39.3598 19.956 39.1918 19.944 38.9998 19.872C38.7838 19.824 38.6038 19.836 38.4598 19.908C38.3638 19.932 38.2678 19.956 38.1718 19.98C38.0758 20.004 37.9918 20.028 37.9198 20.052ZM37.3438 11.916C37.2958 11.796 37.2598 11.688 37.2358 11.592C37.2358 11.472 37.2238 11.352 37.1998 11.232C37.1998 11.04 37.1878 10.884 37.1638 10.764C37.1158 10.572 37.0438 10.368 36.9478 10.152C36.8758 9.912 36.7918 9.684 36.6958 9.468C36.6718 9.372 36.6238 9.276 36.5518 9.18C36.5038 9.06 36.4558 8.952 36.4078 8.856C36.2158 8.472 35.9158 8.244 35.5078 8.172C35.4358 8.148 35.3518 8.124 35.2558 8.1C35.1598 8.052 35.0758 8.004 35.0038 7.956C34.8598 7.86 34.7158 7.788 34.5718 7.74C34.4278 7.692 34.2838 7.656 34.1398 7.632C33.9478 7.584 33.7438 7.536 33.5278 7.488C33.3118 7.416 33.1078 7.368 32.9158 7.344C32.6758 7.224 32.4478 7.236 32.2318 7.38C31.5838 7.644 30.9958 7.992 30.4678 8.424C29.9398 8.832 29.4838 9.396 29.0998 10.116C29.0278 10.212 28.9558 10.32 28.8838 10.44C28.8358 10.56 28.7878 10.68 28.7398 10.8C28.6438 10.92 28.5598 11.052 28.4878 11.196C28.4158 11.316 28.3558 11.436 28.3078 11.556C28.3318 11.748 28.4158 11.904 28.5598 12.024C28.7038 12.144 28.7878 12.3 28.8118 12.492C28.8118 12.588 28.7758 12.684 28.7038 12.78C28.6318 12.852 28.5838 12.936 28.5598 13.032C28.6078 13.128 28.6678 13.236 28.7398 13.356C28.8118 13.476 28.8718 13.596 28.9198 13.716C28.9918 13.836 29.0398 13.968 29.0638 14.112C29.1118 14.232 29.1478 14.364 29.1718 14.508C29.2198 14.628 29.2558 14.748 29.2798 14.868C29.3278 14.988 29.3638 15.108 29.3878 15.228L29.8918 15.624C29.9638 15.672 30.0358 15.744 30.1078 15.84C30.2038 15.912 30.2998 15.972 30.3958 16.02C30.6838 16.092 30.9358 16.164 31.1518 16.236C31.3438 16.284 31.5118 16.308 31.6558 16.308C31.7998 16.308 31.9558 16.308 32.1238 16.308C32.1238 16.308 32.1118 16.308 32.0878 16.308C32.0878 16.308 32.0878 16.32 32.0878 16.344H32.1598C32.1358 16.344 32.1238 16.332 32.1238 16.308C32.1718 16.26 32.2318 16.236 32.3038 16.236C32.3758 16.212 32.4358 16.2 32.4838 16.2C32.6278 16.2 32.7718 16.212 32.9158 16.236C33.0838 16.236 33.2518 16.224 33.4198 16.2C33.4678 16.152 33.5278 16.152 33.5998 16.2C33.6958 16.224 33.7798 16.248 33.8518 16.272C33.9478 16.272 34.0198 16.248 34.0678 16.2C34.0678 16.104 34.0558 16.02 34.0318 15.948C34.0318 15.876 34.0678 15.816 34.1398 15.768C34.4518 15.6 34.7518 15.468 35.0398 15.372C35.1598 15.276 35.2558 15.192 35.3278 15.12C35.4238 15.048 35.5078 14.964 35.5798 14.868C35.6758 14.82 35.7478 14.76 35.7958 14.688C35.8678 14.616 35.9518 14.568 36.0478 14.544C36.2638 14.472 36.4438 14.376 36.5878 14.256C36.7558 14.112 36.9118 13.968 37.0558 13.824C37.0798 13.776 37.0918 13.74 37.0918 13.716C37.1158 13.668 37.1398 13.62 37.1638 13.572C37.4278 13.02 37.4878 12.468 37.3438 11.916Z" fill="black"/>
<path d="M19.08 10.836C19.128 11.004 19.116 11.172 19.044 11.34C18.972 11.508 18.96 11.688 19.008 11.88C19.008 11.976 18.984 12.072 18.936 12.168C18.936 12.216 18.924 12.264 18.9 12.312C18.876 12.336 18.864 12.36 18.864 12.384C18.888 12.768 18.888 13.032 18.864 13.176C18.864 13.296 18.804 13.548 18.684 13.932C18.708 14.028 18.72 14.148 18.72 14.292C18.744 14.412 18.768 14.544 18.792 14.688C18.768 14.856 18.708 15.072 18.612 15.336C18.54 15.288 18.468 15.252 18.396 15.228C18.348 15.204 18.3 15.18 18.252 15.156C18.108 15.108 18.036 15.168 18.036 15.336C18.036 15.504 18.06 15.66 18.108 15.804C18.18 15.924 18.264 16.044 18.36 16.164C18.312 16.356 18.264 16.56 18.216 16.776C18.192 16.992 18.156 17.22 18.108 17.46C17.988 17.676 17.856 17.904 17.712 18.144C17.568 18.36 17.376 18.528 17.136 18.648C17.112 18.768 17.088 18.876 17.064 18.972C17.04 19.044 17.004 19.14 16.956 19.26C16.74 19.428 16.524 19.608 16.308 19.8C16.092 19.968 15.912 20.148 15.768 20.34C15.648 20.436 15.54 20.472 15.444 20.448C15.348 20.424 15.252 20.424 15.156 20.448C14.988 20.568 14.82 20.688 14.652 20.808C14.508 20.928 14.352 21.048 14.184 21.168C14.016 21.264 13.86 21.372 13.716 21.492C13.572 21.612 13.416 21.732 13.248 21.852H12.708C12.588 21.948 12.48 22.032 12.384 22.104C12.288 22.152 12.18 22.212 12.06 22.284C11.988 22.284 11.928 22.296 11.88 22.32C11.856 22.32 11.82 22.308 11.772 22.284C11.532 22.26 11.364 22.272 11.268 22.32C11.172 22.344 10.98 22.416 10.692 22.536C10.476 22.608 10.26 22.68 10.044 22.752C9.828 22.848 9.612 22.944 9.396 23.04C9.132 22.92 8.856 22.86 8.568 22.86C8.304 22.86 8.028 22.86 7.74 22.86C7.596 22.764 7.452 22.68 7.308 22.608C7.212 22.56 7.128 22.524 7.056 22.5C7.008 22.476 6.936 22.452 6.84 22.428C6.792 22.428 6.72 22.428 6.624 22.428C6.552 22.428 6.468 22.452 6.372 22.5C6.324 22.524 6.264 22.56 6.192 22.608C6.12 22.656 6.06 22.716 6.012 22.788C5.556 22.716 5.088 22.644 4.608 22.572C4.128 22.524 3.648 22.452 3.168 22.356C2.976 22.308 2.784 22.26 2.592 22.212C2.424 22.14 2.244 22.08 2.052 22.032C1.908 22.056 1.764 22.08 1.62 22.104C1.476 22.128 1.32 22.164 1.152 22.212C0.768 22.26 0.492 22.092 0.324 21.708C0.324 21.66 0.312 21.612 0.288 21.564C0.288 21.516 0.288 21.48 0.288 21.456C0.336 21.192 0.384 20.94 0.432 20.7C0.48 20.46 0.516 20.232 0.54 20.016C0.54 19.968 0.588 19.896 0.684 19.8V19.656C0.588 19.584 0.492 19.512 0.396 19.44C0.324 19.368 0.252 19.296 0.18 19.224L0.144 15.984V15.948H0.396C0.372 15.9 0.336 15.864 0.288 15.84C0.24 15.792 0.192 15.756 0.144 15.732C0.144 15.732 0.18 15.624 0.252 15.408C0.324 15.192 0.372 15.036 0.396 14.94C0.444 14.796 0.432 14.676 0.36 14.58C0.312 14.484 0.276 14.388 0.252 14.292C0.3 14.196 0.348 14.112 0.396 14.04C0.444 13.944 0.48 13.848 0.504 13.752C0.48 13.632 0.444 13.524 0.396 13.428C0.348 13.332 0.3 13.236 0.252 13.14C0.228 13.02 0.228 12.9 0.252 12.78C0.3 12.636 0.324 12.516 0.324 12.42C0.372 12.3 0.384 12.18 0.36 12.06C0.336 11.94 0.324 11.796 0.324 11.628C0.252 11.364 0.144 11.076 0 10.764C0.072 10.62 0.132 10.476 0.18 10.332C0.228 10.188 0.276 10.044 0.324 9.9L0.216 9.396C0.264 9.204 0.312 9.012 0.36 8.82C0.432 8.604 0.48 8.412 0.504 8.244C0.408 7.884 0.36 7.536 0.36 7.2C0.384 6.84 0.396 6.48 0.396 6.12C0.396 5.928 0.456 5.712 0.576 5.472C0.624 5.424 0.648 5.376 0.648 5.328C0.672 5.256 0.696 5.208 0.72 5.184C0.6 4.944 0.528 4.764 0.504 4.644C0.504 4.5 0.528 4.356 0.576 4.212C0.624 4.044 0.588 3.9 0.468 3.78C0.396 3.516 0.372 3.276 0.396 3.06C0.42 2.82 0.456 2.58 0.504 2.34C0.624 2.22 0.72 2.1 0.792 1.98C0.888 1.836 0.984 1.692 1.08 1.548C1.2 1.524 1.32 1.5 1.44 1.476C1.584 1.428 1.704 1.416 1.8 1.44C2.184 1.512 2.592 1.452 3.024 1.26C3.144 1.188 3.264 1.164 3.384 1.188C3.528 1.212 3.672 1.248 3.816 1.296C4.272 1.224 4.728 1.152 5.184 1.08C5.64 1.008 6.084 0.911998 6.516 0.791998C6.636 0.743999 6.756 0.731999 6.876 0.755999C6.996 0.779998 7.14 0.791998 7.308 0.791998L7.956 0.504C8.076 0.527999 8.196 0.563998 8.316 0.611998C8.436 0.635997 8.556 0.671999 8.676 0.719999C8.82 0.696 8.964 0.659998 9.108 0.611998C9.252 0.563998 9.408 0.527999 9.576 0.504C9.672 0.551999 9.768 0.612 9.864 0.684C9.96 0.755999 10.056 0.815998 10.152 0.863998C10.416 0.839999 10.656 0.792 10.872 0.719999C11.112 0.647999 11.352 0.599998 11.592 0.575998C11.688 0.671999 11.76 0.779998 11.808 0.899998C11.856 0.995998 11.928 1.08 12.024 1.152C12.12 1.272 12.252 1.332 12.42 1.332C12.612 1.308 12.744 1.224 12.816 1.08C12.864 0.959998 12.936 0.911999 13.032 0.935999C13.152 0.959999 13.272 1.068 13.392 1.26C13.536 1.26 13.68 1.248 13.824 1.224C13.968 1.2 14.124 1.188 14.292 1.188C14.412 1.26 14.508 1.332 14.58 1.404C14.676 1.452 14.772 1.524 14.868 1.62C14.964 1.716 15.06 1.812 15.156 1.908C15.252 1.98 15.36 2.052 15.48 2.124C15.624 2.196 15.72 2.304 15.768 2.448C15.864 2.592 15.972 2.736 16.092 2.88C16.236 3 16.368 3.12 16.488 3.24C16.68 3.456 16.968 3.624 17.352 3.744C17.4 3.768 17.448 3.792 17.496 3.816C17.568 3.84 17.616 3.864 17.64 3.888C17.688 4.08 17.736 4.272 17.784 4.464C17.856 4.632 17.904 4.812 17.928 5.004C17.904 5.22 17.868 5.4 17.82 5.544C17.868 5.76 17.964 5.94 18.108 6.084C18.252 6.204 18.384 6.336 18.504 6.48C18.84 7.008 19.008 7.62 19.008 8.316C19.008 8.556 19.02 8.796 19.044 9.036C19.068 9.252 19.056 9.468 19.008 9.684C18.984 9.876 18.996 10.068 19.044 10.26C19.116 10.452 19.128 10.644 19.08 10.836ZM13.752 10.152C13.704 10.032 13.632 9.912 13.536 9.792C13.464 9.648 13.404 9.504 13.356 9.36C13.284 9.216 13.224 9.072 13.176 8.928C13.128 8.76 13.08 8.592 13.032 8.424C12.648 8.376 12.312 8.256 12.024 8.064C11.76 7.872 11.496 7.68 11.232 7.488H10.692C10.452 7.296 10.224 7.128 10.008 6.984C9.792 6.816 9.564 6.648 9.324 6.48C8.916 6.432 8.508 6.432 8.1 6.48C7.716 6.504 7.356 6.48 7.02 6.408C6.804 6.48 6.612 6.54 6.444 6.588C6.3 6.612 6.156 6.648 6.012 6.696C5.868 6.792 5.772 6.864 5.724 6.912C5.652 7.272 5.628 7.632 5.652 7.992C5.676 8.352 5.7 8.712 5.724 9.072C5.82 9.216 5.832 9.36 5.76 9.504C5.712 9.624 5.7 9.744 5.724 9.864C5.748 9.936 5.76 10.008 5.76 10.08C5.784 10.152 5.808 10.248 5.832 10.368C5.784 10.512 5.748 10.668 5.724 10.836C5.724 10.98 5.712 11.148 5.688 11.34C5.688 11.724 5.652 12.084 5.58 12.42C5.652 12.54 5.712 12.66 5.76 12.78C5.808 12.876 5.856 12.984 5.904 13.104C5.832 13.32 5.748 13.548 5.652 13.788C5.58 14.004 5.52 14.208 5.472 14.4C5.472 14.52 5.472 14.64 5.472 14.76C5.496 14.88 5.496 15 5.472 15.12C5.448 15.408 5.376 15.696 5.256 15.984L5.4 16.236C5.544 16.596 5.832 16.728 6.264 16.632C6.528 16.632 6.744 16.596 6.912 16.524C7.08 16.476 7.236 16.476 7.38 16.524C7.548 16.548 7.716 16.548 7.884 16.524C8.076 16.476 8.28 16.416 8.496 16.344C8.736 16.248 8.952 16.164 9.144 16.092C9.264 16.068 9.372 16.044 9.468 16.02C9.564 15.996 9.66 15.996 9.756 16.02C9.972 16.044 10.2 16.044 10.44 16.02C10.68 15.996 10.92 15.972 11.16 15.948C11.208 15.9 11.28 15.864 11.376 15.84C11.472 15.792 11.556 15.744 11.628 15.696C11.988 15.528 12.3 15.252 12.564 14.868C12.684 14.7 12.78 14.52 12.852 14.328C12.948 14.112 13.044 13.92 13.14 13.752C13.332 13.344 13.476 12.948 13.572 12.564C13.668 12.156 13.692 11.736 13.644 11.304C13.62 11.208 13.608 11.112 13.608 11.016C13.632 10.92 13.656 10.824 13.68 10.728C13.704 10.632 13.728 10.536 13.752 10.44C13.776 10.344 13.776 10.248 13.752 10.152Z" fill="black"/>
</svg>
